<?xml version="1.0" encoding="UTF-8"?>
<svg id="Layer_1" data-name="Layer 1" xmlns="http://www.w3.org/2000/svg" viewBox="0 0 206.34 54.02">
  <defs>
    <style>
      .cls-1, .cls-2 {
        fill: #fff;
      }

      .cls-2 {
        font-family: Montserrat-SemiBoldItalic, Montserrat;
        font-size: 29.69px;
      }
    </style>
  </defs>
  <g>
    <path class="cls-1" d="M46.33,37.14c-2.14-1.46-4.99-1.07-6.76,.83-3.19,3.42-7.72,6.11-12.87,6.02-8.8-.16-16.16-7.23-16.64-16.02-.54-9.81,7.26-17.93,16.95-17.93,4.29,0,8.2,1.59,11.19,4.22,1.72,1.51,4.26,1.64,6.14,.33h0c2.7-1.87,2.89-5.77,.42-7.93C39.62,2.17,32.78-.4,25.34,.05,11.92,.86,.99,11.68,.07,25.09c-1.09,15.78,11.39,28.93,26.94,28.93,8.13,0,15.41-3.59,20.36-9.27,2.01-2.31,1.5-5.88-1.04-7.61h0Z"/>
    <path class="cls-1" d="M38.3,35.73c1.31-1.38,3.15-2.24,5.2-2.24s3.89,.86,5.2,2.24h6.3c1.96,0,3.1-2.17,2.03-3.82-2.87-4.43-7.86-7.37-13.53-7.37s-10.66,2.93-13.53,7.37c-1.07,1.65,.07,3.82,2.03,3.82h6.3Z"/>
  </g>
  <text class="cls-2" transform="translate(57.03 41.63)"><tspan x="0" y="0">UESSLIFY</tspan></text>
</svg>